<svg width="75" height="75" viewBox="0 0 75 75" fill="none" xmlns="http://www.w3.org/2000/svg">
<path d="M55.6866 4.49074L52.6493 1.52576L36.7905 17.7712L39.8278 20.7362L55.6866 4.49074Z" fill="black"/>
<path d="M72.1435 20.557L69.1062 17.592L50.2825 36.8747L53.3197 39.8397L72.1435 20.557Z" fill="black"/>
<path d="M57.8349 8.64445L60.3513 6.06671L54.1367 2.93003e-05L51.6203 2.57777L57.8349 8.64445Z" fill="black"/>
<path d="M71.1145 21.6105L73.6309 19.0327L64.1677 9.79475L61.6513 12.3725L71.1145 21.6105Z" fill="black"/>
<path d="M40.2265 53.261L37.2615 56.2982L53.5069 72.157L56.4719 69.1197L40.2265 53.261Z" fill="black"/>
<path d="M56.2874 36.8028L53.3224 39.84L69.5678 55.6988L72.5328 52.6615L56.2874 36.8028Z" fill="black"/>
<path d="M52.4474 71.1131L55.0251 73.6295L61.0918 67.4149L58.5141 64.8985L52.4474 71.1131Z" fill="black"/>
<path d="M62.2389 61.0852L64.8167 63.6016L74.0546 54.1384L71.4769 51.622L62.2389 61.0852Z" fill="black"/>
<path d="M20.8011 40.2291L17.7638 37.2641L1.90502 53.5095L4.94228 56.4745L20.8011 40.2291Z" fill="black"/>
<path d="M40.2217 53.2546L37.1844 50.2896L18.3607 69.5723L21.398 72.5373L40.2217 53.2546Z" fill="black"/>
<path d="M2.94071 52.4528L0.424316 55.0306L10.4527 64.8203L12.9691 62.2425L2.94071 52.4528Z" fill="black"/>
<path d="M15.9081 65.1107L13.3917 67.6885L19.9184 74.0598L22.4348 71.4821L15.9081 65.1107Z" fill="black"/>
<path d="M4.48268 18.3687L1.5177 21.4059L20.8004 40.2297L23.7654 37.1924L4.48268 18.3687Z" fill="black"/>
<path d="M20.5503 1.91311L17.5853 4.95038L36.868 23.7741L39.833 20.7369L20.5503 1.91311Z" fill="black"/>
<path d="M8.64451 16.2216L6.06677 13.7052L9.03355e-05 19.9198L2.57783 22.4362L8.64451 16.2216Z" fill="black"/>
<path d="M21.6064 2.94742L19.0287 0.43103L9.79073 9.89421L12.3685 12.4106L21.6064 2.94742Z" fill="black"/>
<path d="M62.2542 56.4029L17.3636 12.5808L11.8871 18.1909L56.7776 62.013L62.2542 56.4029Z" fill="black"/>
<path d="M56.3273 11.8861L12.5051 56.7767L18.5797 62.7066L62.4018 17.8161L56.3273 11.8861Z" fill="black"/>
<path d="M38.9178 31.3095L31.2731 23.8467L23.8103 31.4914L31.455 38.9543L38.9178 31.3095Z" fill="black" stroke="white" stroke-width="3.43409" stroke-miterlimit="10"/>
<path d="M30.8211 23.3574L23.1764 15.8946L15.7136 23.5394L23.3583 31.0022L30.8211 23.3574Z" fill="black" stroke="white" stroke-width="3.43409" stroke-miterlimit="10"/>
</svg>
