<svg width="272" height="271" viewBox="0 0 272 271" fill="none" xmlns="http://www.w3.org/2000/svg">
<rect x="0.703125" y="0.710938" width="270" height="270" fill="white"/>
<path d="M103.661 195.905L104.979 179.792C106.249 180.183 107.934 180.598 110.033 181.037C112.182 181.477 114.184 181.696 116.039 181.696C118.383 181.696 120.434 181.452 122.191 180.964C123.949 180.476 125.463 179.792 126.732 178.913C128.002 178.034 129.052 176.984 129.882 175.764C130.761 174.494 131.469 173.078 132.006 171.516L134.057 166.975L96.8496 90.0703H119.115L135.961 127.79L142.626 146.394L144.823 140.754L164.892 90.0703H187.304L149.364 176.496C148.095 179.377 146.605 182.136 144.896 184.772C143.236 187.409 141.234 189.729 138.891 191.73C136.498 193.732 133.715 195.319 130.541 196.491C127.367 197.663 123.632 198.249 119.335 198.249C115.868 198.249 112.792 197.956 110.106 197.37C107.47 196.833 105.321 196.345 103.661 195.905Z" fill="black"/>
<path d="M9.23264 81.723C13.9006 86.4275 13.871 94.0255 9.16644 98.6934C9.16644 98.6934 9.60813 99.1388 4.94015 94.4343C0.272181 89.7297 0.714453 90.1753 0.714453 90.1753C5.41899 85.5073 9.23264 81.723 9.23264 81.723Z" fill="#D9D9D9" stroke="black" stroke-dasharray="2 2"/>
<path d="M103.661 195.905L104.979 179.792C106.249 180.183 107.934 180.598 110.033 181.037C112.182 181.477 114.184 181.696 116.039 181.696C118.383 181.696 120.434 181.452 122.191 180.964C123.949 180.476 125.463 179.792 126.732 178.913C128.002 178.034 129.052 176.984 129.882 175.764C130.761 174.494 131.469 173.078 132.006 171.516L134.057 166.975L96.8496 90.0703H119.115L135.961 127.79L142.626 146.394L144.823 140.754L164.892 90.0703H187.304L149.364 176.496C148.095 179.377 146.605 182.136 144.896 184.772C143.236 187.409 141.234 189.729 138.891 191.73C136.498 193.732 133.715 195.319 130.541 196.491C127.367 197.663 123.632 198.249 119.335 198.249C115.868 198.249 112.792 197.956 110.106 197.37C107.47 196.833 105.321 196.345 103.661 195.905Z" fill="black"/>
<line x1="0.35153" y1="90.3554" x2="91.3515" y2="0.355437" stroke="black" stroke-opacity="0.7" stroke-dasharray="2 2"/>
<line x1="91.0399" y1="1.34134" x2="271.04" y2="165.341" stroke="black" stroke-opacity="0.7" stroke-dasharray="2 2"/>
<line x1="1.06162" y1="90.3624" x2="176.062" y2="270.362" stroke="black" stroke-opacity="0.7" stroke-dasharray="2 2"/>
<path d="M49.2032 138.716C49.2062 138.992 49.4324 139.214 49.7086 139.211L54.2083 139.162C54.4844 139.159 54.7058 138.933 54.7028 138.657C54.6998 138.38 54.4736 138.159 54.1974 138.162L50.1977 138.206L50.1542 134.206C50.1512 133.93 49.9249 133.708 49.6488 133.711C49.3727 133.714 49.1512 133.941 49.1542 134.217L49.2032 138.716ZM141.203 45.7055C141.2 45.4294 140.974 45.208 140.698 45.211L136.198 45.2599C135.922 45.2629 135.7 45.4892 135.703 45.7653C135.706 46.0414 135.933 46.2628 136.209 46.2598L140.209 46.2163L140.252 50.2161C140.255 50.4922 140.481 50.7136 140.757 50.7106C141.034 50.7076 141.255 50.4814 141.252 50.2052L141.203 45.7055ZM49.7031 138.711L50.0605 139.061L141.06 46.0606L140.703 45.7109L140.346 45.3612L49.3457 138.361L49.7031 138.711Z" fill="black" fill-opacity="0.7"/>
<path d="M91.6712 90.8878L90.9994 91.5743L88.2707 88.904L87.7135 90.1186L87.1223 89.54L88.0785 87.4438L88.1144 87.4072L91.6712 90.8878ZM91.5765 86.8307L91.9375 86.4618C92.0331 86.3641 92.1022 86.2675 92.1447 86.172C92.1871 86.0732 92.2054 85.978 92.1996 85.8862C92.1971 85.804 92.1753 85.7237 92.1341 85.6452C92.093 85.5634 92.0365 85.4875 91.9649 85.4174C91.8949 85.3489 91.821 85.2973 91.7433 85.2627C91.6655 85.2249 91.5855 85.2056 91.5033 85.2049C91.4228 85.2057 91.34 85.2268 91.2551 85.268C91.1717 85.3075 91.0894 85.3689 91.0081 85.4519C90.9412 85.5203 90.888 85.5942 90.8486 85.6736C90.8107 85.7513 90.7882 85.8297 90.781 85.9088C90.7739 85.991 90.7836 86.0707 90.8102 86.1477C90.8368 86.2248 90.8827 86.2952 90.9478 86.3589L90.2833 87.0381C90.1383 86.8962 90.0351 86.7378 89.9736 86.5629C89.9137 86.3863 89.8915 86.2036 89.9072 86.0149C89.9245 85.8278 89.9781 85.6411 90.0679 85.4548C90.1594 85.2669 90.2848 85.0916 90.4441 84.9287C90.6162 84.7528 90.796 84.6131 90.9834 84.5096C91.1692 84.4044 91.3554 84.3412 91.5421 84.3198C91.7304 84.3 91.916 84.3238 92.0988 84.3911C92.2816 84.4552 92.456 84.5685 92.6221 84.7311C92.6987 84.806 92.7632 84.8915 92.8159 84.9876C92.8668 85.0821 92.9042 85.1841 92.9279 85.2934C92.9517 85.4027 92.9602 85.5178 92.9534 85.6387C92.945 85.7581 92.9198 85.88 92.8776 86.0045C93.0107 85.9402 93.1399 85.8994 93.2654 85.8819C93.3925 85.8628 93.5142 85.8639 93.6304 85.8852C93.7483 85.9081 93.8607 85.9496 93.9677 86.0096C94.0747 86.0697 94.1755 86.146 94.2699 86.2384C94.436 86.401 94.5532 86.5777 94.6213 86.7688C94.6894 86.9598 94.7133 87.1537 94.6929 87.3505C94.6741 87.5489 94.6134 87.7477 94.5108 87.947C94.4082 88.1431 94.2708 88.3291 94.0987 88.505C93.9505 88.6565 93.7851 88.7847 93.6025 88.8898C93.4199 88.9917 93.2313 89.0574 93.0367 89.0869C92.8436 89.118 92.6501 89.1056 92.4562 89.0497C92.2638 88.9921 92.0813 88.8789 91.9087 88.71L92.5732 88.0308C92.6416 88.0978 92.7179 88.1469 92.802 88.1782C92.8845 88.208 92.9701 88.2183 93.0586 88.2093C93.1471 88.2035 93.2355 88.18 93.3237 88.1387C93.4102 88.0959 93.4918 88.0354 93.5683 87.9572C93.6543 87.8693 93.7194 87.7784 93.7635 87.6844C93.8076 87.5905 93.8291 87.4968 93.8281 87.4033C93.8304 87.3163 93.8118 87.2311 93.7722 87.1478C93.7342 87.0628 93.677 86.9828 93.6004 86.9079C93.5043 86.8139 93.4085 86.7472 93.313 86.708C93.2175 86.6687 93.1223 86.6537 93.0273 86.6627C92.9308 86.6735 92.8353 86.7059 92.7408 86.7601C92.6479 86.8127 92.556 86.8854 92.4652 86.9782L92.1042 87.3471L91.5765 86.8307ZM96.8369 82.9017C97.0666 83.1265 97.243 83.3517 97.3663 83.5776C97.4896 83.8002 97.5612 84.0186 97.5813 84.2327C97.6029 84.4484 97.5738 84.6574 97.4938 84.8597C97.4138 85.0619 97.2862 85.2527 97.1109 85.4318C96.9371 85.6093 96.75 85.7402 96.5495 85.8246C96.349 85.9089 96.1407 85.9426 95.9246 85.9256C95.7085 85.9118 95.4863 85.8474 95.2578 85.7322C95.0294 85.6138 94.8003 85.4423 94.5707 85.2176L93.7206 84.3857C93.4909 84.161 93.3153 83.9365 93.1936 83.7122C93.0703 83.4863 92.9986 83.2647 92.9785 83.0474C92.9585 82.8333 92.9877 82.626 93.0661 82.4253C93.1461 82.223 93.2729 82.0331 93.4466 81.8556C93.6219 81.6765 93.8099 81.5447 94.0104 81.4604C94.2109 81.376 94.4191 81.3407 94.6352 81.3545C94.8513 81.3715 95.0736 81.4392 95.3021 81.5576C95.5289 81.6744 95.7572 81.8451 95.9868 82.0698L96.8369 82.9017ZM94.9469 84.2467L95.1684 82.608C95.0317 82.4806 94.9034 82.3837 94.7834 82.3173C94.6634 82.2477 94.551 82.2094 94.4462 82.2025C94.3639 82.1953 94.2851 82.2091 94.2098 82.2437C94.1344 82.2752 94.0632 82.3251 93.9963 82.3935C93.9214 82.47 93.8699 82.552 93.8418 82.6393C93.8137 82.7234 93.8091 82.8128 93.8278 82.9077C93.8466 83.009 93.8937 83.1173 93.9691 83.2325C94.0461 83.3461 94.1505 83.4674 94.2824 83.5965L94.6757 83.9814C94.7539 84.0579 94.806 84.1089 94.8321 84.1344C94.8581 84.1599 94.8964 84.1973 94.9469 84.2467ZM96.2702 83.6861L95.8573 83.2821C95.8036 83.2295 95.7645 83.1913 95.7401 83.1674C95.714 83.1419 95.6774 83.106 95.6301 83.0598L95.4062 84.6961C95.5168 84.7981 95.6225 84.8807 95.723 84.9441C95.8252 85.0058 95.9207 85.0467 96.0096 85.0667C96.1146 85.0929 96.2129 85.0919 96.3044 85.0635C96.396 85.0351 96.4824 84.9794 96.5636 84.8963C96.6386 84.8198 96.6908 84.7386 96.7205 84.6529C96.7486 84.5656 96.7524 84.4737 96.7321 84.3772C96.71 84.276 96.6605 84.1685 96.5835 84.055C96.5066 83.9382 96.4021 83.8152 96.2702 83.6861Z" fill="black" fill-opacity="0.7"/>
<path d="M119.203 212.716C119.206 212.992 119.432 213.214 119.708 213.211L124.208 213.164C124.484 213.161 124.706 212.935 124.703 212.659C124.7 212.383 124.474 212.161 124.198 212.164L120.198 212.206L120.156 208.206C120.153 207.93 119.927 207.708 119.651 207.711C119.375 207.714 119.153 207.94 119.156 208.216L119.203 212.716ZM215.203 115.706C215.2 115.43 214.974 115.208 214.698 115.211L210.198 115.258C209.922 115.261 209.701 115.487 209.703 115.763C209.706 116.039 209.932 116.261 210.209 116.258L214.208 116.216L214.25 120.216C214.253 120.492 214.479 120.714 214.755 120.711C215.031 120.708 215.253 120.482 215.25 120.205L215.203 115.706ZM119.703 212.711L120.06 213.061L215.06 116.061L214.703 115.711L214.346 115.361L119.346 212.361L119.703 212.711Z" fill="black" fill-opacity="0.7"/>
<path d="M172.671 169.888L171.999 170.574L169.271 167.904L168.713 169.119L168.122 168.54L169.079 166.444L169.114 166.407L172.671 169.888ZM172.577 165.831L172.938 165.462C173.033 165.364 173.102 165.268 173.145 165.172C173.187 165.073 173.205 164.978 173.2 164.886C173.197 164.804 173.175 164.724 173.134 164.645C173.093 164.563 173.037 164.488 172.965 164.417C172.895 164.349 172.821 164.297 172.743 164.263C172.666 164.225 172.586 164.206 172.503 164.205C172.423 164.206 172.34 164.227 172.255 164.268C172.172 164.308 172.089 164.369 172.008 164.452C171.941 164.52 171.888 164.594 171.849 164.674C171.811 164.751 171.788 164.83 171.781 164.909C171.774 164.991 171.784 165.071 171.81 165.148C171.837 165.225 171.883 165.295 171.948 165.359L171.283 166.038C171.138 165.896 171.035 165.738 170.974 165.563C170.914 165.386 170.892 165.204 170.907 165.015C170.925 164.828 170.978 164.641 171.068 164.455C171.159 164.267 171.285 164.092 171.444 163.929C171.616 163.753 171.796 163.613 171.983 163.51C172.169 163.404 172.355 163.341 172.542 163.32C172.73 163.3 172.916 163.324 173.099 163.391C173.282 163.455 173.456 163.569 173.622 163.731C173.699 163.806 173.763 163.892 173.816 163.988C173.867 164.082 173.904 164.184 173.928 164.293C173.952 164.403 173.96 164.518 173.953 164.639C173.945 164.758 173.92 164.88 173.878 165.005C174.011 164.94 174.14 164.899 174.265 164.882C174.393 164.863 174.514 164.864 174.63 164.885C174.748 164.908 174.861 164.95 174.968 165.01C175.075 165.07 175.175 165.146 175.27 165.238C175.436 165.401 175.553 165.578 175.621 165.769C175.689 165.96 175.713 166.154 175.693 166.35C175.674 166.549 175.613 166.748 175.511 166.947C175.408 167.143 175.271 167.329 175.099 167.505C174.95 167.656 174.785 167.785 174.603 167.89C174.42 167.992 174.231 168.057 174.037 168.087C173.844 168.118 173.65 168.106 173.456 168.05C173.264 167.992 173.081 167.879 172.909 167.71L173.573 167.031C173.642 167.098 173.718 167.147 173.802 167.178C173.885 167.208 173.97 167.218 174.059 167.209C174.147 167.203 174.236 167.18 174.324 167.139C174.41 167.096 174.492 167.035 174.568 166.957C174.654 166.869 174.719 166.778 174.763 166.684C174.808 166.59 174.829 166.497 174.828 166.403C174.83 166.316 174.812 166.231 174.772 166.148C174.734 166.063 174.677 165.983 174.6 165.908C174.504 165.814 174.409 165.747 174.313 165.708C174.218 165.669 174.122 165.654 174.027 165.663C173.931 165.673 173.835 165.706 173.741 165.76C173.648 165.813 173.556 165.885 173.465 165.978L173.104 166.347L172.577 165.831ZM175.206 163.794L173.599 161.824L175.531 159.85L176.107 160.415L174.723 161.829L175.421 162.68C175.441 162.6 175.481 162.499 175.541 162.376C175.601 162.253 175.69 162.131 175.808 162.011C175.975 161.84 176.152 161.715 176.338 161.635C176.524 161.553 176.714 161.515 176.907 161.523C177.099 161.532 177.293 161.585 177.489 161.681C177.685 161.777 177.877 161.917 178.064 162.1C178.223 162.256 178.352 162.428 178.449 162.615C178.546 162.803 178.601 162.999 178.615 163.203C178.628 163.408 178.594 163.615 178.513 163.826C178.431 164.036 178.292 164.242 178.094 164.444C177.944 164.597 177.776 164.723 177.591 164.822C177.406 164.919 177.216 164.98 177.02 165.004C176.823 165.029 176.627 165.014 176.432 164.96C176.236 164.902 176.054 164.796 175.885 164.64L176.54 163.97C176.71 164.105 176.884 164.167 177.061 164.156C177.24 164.142 177.402 164.062 177.547 163.913C177.636 163.822 177.695 163.728 177.723 163.631C177.752 163.533 177.757 163.433 177.736 163.334C177.714 163.236 177.671 163.137 177.605 163.038C177.541 162.937 177.461 162.84 177.365 162.746C177.271 162.653 177.172 162.581 177.07 162.529C176.968 162.473 176.865 162.442 176.76 162.435C176.655 162.429 176.551 162.447 176.449 162.49C176.346 162.533 176.246 162.604 176.149 162.703C176.084 162.77 176.033 162.833 175.996 162.893C175.96 162.953 175.932 163.011 175.914 163.066C175.895 163.121 175.883 163.175 175.879 163.228C175.873 163.28 175.87 163.331 175.871 163.383L175.206 163.794Z" fill="black" fill-opacity="0.7"/>
</svg>
