<svg width="418" height="418" viewBox="0 0 418 418" fill="none" xmlns="http://www.w3.org/2000/svg">
<g clip-path="url(#clip0_530_1594)">
<path d="M139.5 0.5H0.5V139.5H139.5V0.5Z" stroke="#CCCCCC"/>
<path d="M11.3656 15.168C10.3816 15.168 9.53356 14.976 8.82156 14.592C8.10956 14.2 7.56156 13.656 7.17756 12.96C6.79356 12.256 6.60156 11.436 6.60156 10.5C6.60156 9.56403 6.79356 8.74803 7.17756 8.05203C7.56156 7.34803 8.10956 6.80403 8.82156 6.42003C9.53356 6.02803 10.3816 5.83203 11.3656 5.83203C12.3496 5.83203 13.1936 6.02803 13.8976 6.42003C14.6096 6.80403 15.1576 7.34803 15.5416 8.05203C15.9256 8.74803 16.1176 9.56403 16.1176 10.5C16.1176 11.436 15.9256 12.256 15.5416 12.96C15.1576 13.656 14.6096 14.2 13.8976 14.592C13.1936 14.976 12.3496 15.168 11.3656 15.168ZM11.3656 13.86C12.3656 13.86 13.1416 13.568 13.6936 12.984C14.2456 12.392 14.5216 11.564 14.5216 10.5C14.5216 9.43603 14.2456 8.61203 13.6936 8.02803C13.1416 7.43603 12.3656 7.14003 11.3656 7.14003C10.3656 7.14003 9.58556 7.43603 9.02556 8.02803C8.47356 8.61203 8.19756 9.43603 8.19756 10.5C8.19756 11.564 8.47356 12.392 9.02556 12.984C9.58556 13.568 10.3656 13.86 11.3656 13.86ZM17.8152 15.096C17.6312 15.096 17.4632 15.052 17.3112 14.964C17.1672 14.876 17.0512 14.76 16.9632 14.616C16.8752 14.464 16.8312 14.296 16.8312 14.112C16.8312 13.928 16.8752 13.764 16.9632 13.62C17.0512 13.468 17.1672 13.348 17.3112 13.26C17.4632 13.172 17.6312 13.128 17.8152 13.128C17.9992 13.128 18.1632 13.172 18.3072 13.26C18.4592 13.348 18.5792 13.468 18.6672 13.62C18.7552 13.764 18.7992 13.928 18.7992 14.112C18.7992 14.296 18.7552 14.464 18.6672 14.616C18.5792 14.76 18.4592 14.876 18.3072 14.964C18.1632 15.052 17.9992 15.096 17.8152 15.096ZM24.2797 15.168C23.2957 15.168 22.4477 14.976 21.7357 14.592C21.0237 14.2 20.4757 13.656 20.0917 12.96C19.7077 12.256 19.5157 11.436 19.5157 10.5C19.5157 9.56403 19.7077 8.74803 20.0917 8.05203C20.4757 7.34803 21.0237 6.80403 21.7357 6.42003C22.4477 6.02803 23.2957 5.83203 24.2797 5.83203C25.2637 5.83203 26.1077 6.02803 26.8117 6.42003C27.5237 6.80403 28.0717 7.34803 28.4557 8.05203C28.8397 8.74803 29.0317 9.56403 29.0317 10.5C29.0317 11.436 28.8397 12.256 28.4557 12.96C28.0717 13.656 27.5237 14.2 26.8117 14.592C26.1077 14.976 25.2637 15.168 24.2797 15.168ZM24.2797 13.86C25.2797 13.86 26.0557 13.568 26.6077 12.984C27.1597 12.392 27.4357 11.564 27.4357 10.5C27.4357 9.43603 27.1597 8.61203 26.6077 8.02803C26.0557 7.43603 25.2797 7.14003 24.2797 7.14003C23.2797 7.14003 22.4997 7.43603 21.9397 8.02803C21.3877 8.61203 21.1117 9.43603 21.1117 10.5C21.1117 11.564 21.3877 12.392 21.9397 12.984C22.4997 13.568 23.2797 13.86 24.2797 13.86ZM30.3106 8.77203C30.3666 8.22003 30.5666 7.72403 30.9106 7.28403C31.2626 6.83603 31.7506 6.48403 32.3746 6.22803C33.0066 5.96403 33.7586 5.83203 34.6306 5.83203C35.4066 5.83203 36.0786 5.93603 36.6466 6.14403C37.2226 6.34403 37.6666 6.62803 37.9786 6.99603C38.2906 7.35603 38.4466 7.78403 38.4466 8.28003C38.4466 8.69603 38.3226 9.07203 38.0746 9.40803C37.8346 9.73603 37.4666 9.99603 36.9706 10.188C36.4746 10.38 35.8546 10.476 35.1106 10.476V10.248C35.8466 10.216 36.4786 10.284 37.0066 10.452C37.5346 10.612 37.9386 10.86 38.2186 11.196C38.5066 11.524 38.6506 11.928 38.6506 12.408C38.6506 12.944 38.4866 13.42 38.1586 13.836C37.8306 14.252 37.3546 14.58 36.7306 14.82C36.1146 15.052 35.3586 15.168 34.4626 15.168C33.5906 15.168 32.8306 15.044 32.1826 14.796C31.5346 14.54 31.0266 14.184 30.6586 13.728C30.2986 13.272 30.0986 12.74 30.0586 12.132H31.6546C31.7266 12.692 31.9986 13.124 32.4706 13.428C32.9426 13.724 33.6066 13.872 34.4626 13.872C35.3186 13.872 35.9626 13.732 36.3946 13.452C36.8266 13.172 37.0426 12.788 37.0426 12.3C37.0426 12.012 36.9666 11.772 36.8146 11.58C36.6706 11.38 36.4266 11.228 36.0826 11.124C35.7466 11.02 35.2906 10.968 34.7146 10.968H33.0826V9.79203H34.7146C35.4586 9.79203 35.9986 9.67203 36.3346 9.43203C36.6706 9.18403 36.8386 8.86803 36.8386 8.48403C36.8386 8.06003 36.6506 7.72803 36.2746 7.48803C35.9066 7.24803 35.3306 7.12803 34.5466 7.12803C33.7786 7.12803 33.1666 7.27203 32.7106 7.56003C32.2626 7.84003 31.9946 8.24403 31.9066 8.77203H30.3106ZM43.8671 6.00003V15H42.2831V6.48003L43.1471 7.24803L39.3791 7.90803V6.64803L42.6791 6.00003H43.8671ZM52.5756 6.00003V15H50.9916V6.66003H51.6396L46.4796 12.396L46.4436 11.832H54.2196V13.104H45.1956V11.964L50.5596 6.00003H52.5756ZM59.7604 5.83203C60.4724 5.83203 61.1044 5.94003 61.6564 6.15603C62.2084 6.37203 62.6604 6.66803 63.0124 7.04403C63.3644 7.41203 63.5844 7.83603 63.6724 8.31603H62.1124C61.9844 7.98803 61.7444 7.71203 61.3924 7.48803C61.0404 7.25603 60.5084 7.14003 59.7964 7.14003C59.0764 7.14003 58.4884 7.27603 58.0324 7.54803C57.5764 7.81203 57.2404 8.19203 57.0244 8.68803C56.8164 9.17603 56.7124 9.76403 56.7124 10.452C56.7124 11.164 56.8324 11.776 57.0724 12.288C57.3124 12.8 57.6684 13.192 58.1404 13.464C58.6124 13.728 59.1964 13.86 59.8924 13.86C60.4204 13.86 60.8604 13.788 61.2124 13.644C61.5724 13.492 61.8404 13.284 62.0164 13.02C62.2004 12.756 62.2924 12.46 62.2924 12.132C62.2924 11.82 62.2124 11.544 62.0524 11.304C61.8924 11.056 61.6444 10.86 61.3084 10.716C60.9804 10.572 60.5564 10.5 60.0364 10.5C59.3404 10.5 58.6964 10.668 58.1044 11.004C57.5124 11.34 57.0204 11.776 56.6284 12.312L55.9564 11.82C56.2204 11.332 56.5604 10.892 56.9764 10.5C57.4004 10.1 57.8924 9.78403 58.4524 9.55203C59.0204 9.31203 59.6524 9.19203 60.3484 9.19203C61.0604 9.19203 61.6804 9.31203 62.2084 9.55203C62.7444 9.78403 63.1564 10.116 63.4444 10.548C63.7404 10.98 63.8884 11.492 63.8884 12.084C63.8884 12.692 63.7244 13.228 63.3964 13.692C63.0684 14.156 62.6044 14.52 62.0044 14.784C61.4124 15.04 60.7084 15.168 59.8924 15.168C58.8604 15.168 57.9924 14.972 57.2884 14.58C56.5844 14.18 56.0524 13.628 55.6924 12.924C55.3404 12.22 55.1644 11.412 55.1644 10.5C55.1644 9.58803 55.3404 8.78003 55.6924 8.07603C56.0444 7.37203 56.5604 6.82403 57.2404 6.43203C57.9284 6.03203 58.7684 5.83203 59.7604 5.83203Z" fill="#CCCCCC"/>
<path d="M80.9124 134.168C79.9284 134.168 79.0804 133.976 78.3684 133.592C77.6564 133.2 77.1084 132.656 76.7244 131.96C76.3404 131.256 76.1484 130.436 76.1484 129.5C76.1484 128.564 76.3404 127.748 76.7244 127.052C77.1084 126.348 77.6564 125.804 78.3684 125.42C79.0804 125.028 79.9284 124.832 80.9124 124.832C81.8964 124.832 82.7404 125.028 83.4444 125.42C84.1564 125.804 84.7044 126.348 85.0884 127.052C85.4724 127.748 85.6644 128.564 85.6644 129.5C85.6644 130.436 85.4724 131.256 85.0884 131.96C84.7044 132.656 84.1564 133.2 83.4444 133.592C82.7404 133.976 81.8964 134.168 80.9124 134.168ZM80.9124 132.86C81.9124 132.86 82.6884 132.568 83.2404 131.984C83.7924 131.392 84.0684 130.564 84.0684 129.5C84.0684 128.436 83.7924 127.612 83.2404 127.028C82.6884 126.436 81.9124 126.14 80.9124 126.14C79.9124 126.14 79.1324 126.436 78.5724 127.028C78.0204 127.612 77.7444 128.436 77.7444 129.5C77.7444 130.564 78.0204 131.392 78.5724 131.984C79.1324 132.568 79.9124 132.86 80.9124 132.86ZM87.362 134.096C87.178 134.096 87.01 134.052 86.858 133.964C86.714 133.876 86.598 133.76 86.51 133.616C86.422 133.464 86.378 133.296 86.378 133.112C86.378 132.928 86.422 132.764 86.51 132.62C86.598 132.468 86.714 132.348 86.858 132.26C87.01 132.172 87.178 132.128 87.362 132.128C87.546 132.128 87.71 132.172 87.854 132.26C88.006 132.348 88.126 132.468 88.214 132.62C88.302 132.764 88.346 132.928 88.346 133.112C88.346 133.296 88.302 133.464 88.214 133.616C88.126 133.76 88.006 133.876 87.854 133.964C87.71 134.052 87.546 134.096 87.362 134.096ZM93.8264 134.168C92.8424 134.168 91.9944 133.976 91.2824 133.592C90.5704 133.2 90.0224 132.656 89.6384 131.96C89.2544 131.256 89.0624 130.436 89.0624 129.5C89.0624 128.564 89.2544 127.748 89.6384 127.052C90.0224 126.348 90.5704 125.804 91.2824 125.42C91.9944 125.028 92.8424 124.832 93.8264 124.832C94.8104 124.832 95.6544 125.028 96.3584 125.42C97.0704 125.804 97.6184 126.348 98.0024 127.052C98.3864 127.748 98.5784 128.564 98.5784 129.5C98.5784 130.436 98.3864 131.256 98.0024 131.96C97.6184 132.656 97.0704 133.2 96.3584 133.592C95.6544 133.976 94.8104 134.168 93.8264 134.168ZM93.8264 132.86C94.8264 132.86 95.6024 132.568 96.1544 131.984C96.7064 131.392 96.9824 130.564 96.9824 129.5C96.9824 128.436 96.7064 127.612 96.1544 127.028C95.6024 126.436 94.8264 126.14 93.8264 126.14C92.8264 126.14 92.0464 126.436 91.4864 127.028C90.9344 127.612 90.6584 128.436 90.6584 129.5C90.6584 130.564 90.9344 131.392 91.4864 131.984C92.0464 132.568 92.8264 132.86 93.8264 132.86ZM99.8574 127.772C99.9134 127.22 100.114 126.724 100.458 126.284C100.81 125.836 101.298 125.484 101.922 125.228C102.554 124.964 103.306 124.832 104.178 124.832C104.954 124.832 105.626 124.936 106.194 125.144C106.77 125.344 107.214 125.628 107.526 125.996C107.838 126.356 107.994 126.784 107.994 127.28C107.994 127.696 107.87 128.072 107.622 128.408C107.382 128.736 107.014 128.996 106.518 129.188C106.022 129.38 105.402 129.476 104.658 129.476V129.248C105.394 129.216 106.026 129.284 106.554 129.452C107.082 129.612 107.486 129.86 107.766 130.196C108.054 130.524 108.198 130.928 108.198 131.408C108.198 131.944 108.034 132.42 107.706 132.836C107.378 133.252 106.902 133.58 106.278 133.82C105.662 134.052 104.906 134.168 104.01 134.168C103.138 134.168 102.378 134.044 101.73 133.796C101.082 133.54 100.574 133.184 100.206 132.728C99.8454 132.272 99.6454 131.74 99.6054 131.132H101.202C101.274 131.692 101.546 132.124 102.018 132.428C102.49 132.724 103.154 132.872 104.01 132.872C104.866 132.872 105.51 132.732 105.942 132.452C106.374 132.172 106.59 131.788 106.59 131.3C106.59 131.012 106.514 130.772 106.362 130.58C106.218 130.38 105.974 130.228 105.63 130.124C105.294 130.02 104.838 129.968 104.262 129.968H102.63V128.792H104.262C105.006 128.792 105.546 128.672 105.882 128.432C106.218 128.184 106.386 127.868 106.386 127.484C106.386 127.06 106.198 126.728 105.822 126.488C105.454 126.248 104.878 126.128 104.094 126.128C103.326 126.128 102.714 126.272 102.258 126.56C101.81 126.84 101.542 127.244 101.454 127.772H99.8574ZM113.414 125V134H111.83V125.48L112.694 126.248L108.926 126.908V125.648L112.226 125H113.414ZM122.123 125V134H120.539V125.66H121.187L116.027 131.396L115.991 130.832H123.767V132.104H114.743V130.964L120.107 125H122.123ZM129.308 124.832C130.02 124.832 130.652 124.94 131.204 125.156C131.756 125.372 132.208 125.668 132.56 126.044C132.912 126.412 133.132 126.836 133.22 127.316H131.66C131.532 126.988 131.292 126.712 130.94 126.488C130.588 126.256 130.056 126.14 129.344 126.14C128.624 126.14 128.036 126.276 127.58 126.548C127.124 126.812 126.788 127.192 126.572 127.688C126.364 128.176 126.26 128.764 126.26 129.452C126.26 130.164 126.38 130.776 126.62 131.288C126.86 131.8 127.216 132.192 127.688 132.464C128.16 132.728 128.744 132.86 129.44 132.86C129.968 132.86 130.408 132.788 130.76 132.644C131.12 132.492 131.388 132.284 131.564 132.02C131.748 131.756 131.84 131.46 131.84 131.132C131.84 130.82 131.76 130.544 131.6 130.304C131.44 130.056 131.192 129.86 130.856 129.716C130.528 129.572 130.104 129.5 129.584 129.5C128.888 129.5 128.244 129.668 127.652 130.004C127.06 130.34 126.568 130.776 126.176 131.312L125.504 130.82C125.768 130.332 126.108 129.892 126.524 129.5C126.948 129.1 127.44 128.784 128 128.552C128.568 128.312 129.2 128.192 129.896 128.192C130.608 128.192 131.228 128.312 131.756 128.552C132.292 128.784 132.704 129.116 132.992 129.548C133.288 129.98 133.436 130.492 133.436 131.084C133.436 131.692 133.272 132.228 132.944 132.692C132.616 133.156 132.152 133.52 131.552 133.784C130.96 134.04 130.256 134.168 129.44 134.168C128.408 134.168 127.54 133.972 126.836 133.58C126.132 133.18 125.6 132.628 125.24 131.924C124.888 131.22 124.712 130.412 124.712 129.5C124.712 128.588 124.888 127.78 125.24 127.076C125.592 126.372 126.108 125.824 126.788 125.432C127.476 125.032 128.316 124.832 129.308 124.832Z" fill="#CCCCCC"/>
<path d="M417.5 139.5H278.5V278.5H417.5V139.5Z" stroke="#CCCCCC"/>
<path d="M358.912 213.668C357.928 213.668 357.08 213.476 356.368 213.092C355.656 212.7 355.108 212.156 354.724 211.46C354.34 210.756 354.148 209.936 354.148 209C354.148 208.064 354.34 207.248 354.724 206.552C355.108 205.848 355.656 205.304 356.368 204.92C357.08 204.528 357.928 204.332 358.912 204.332C359.896 204.332 360.74 204.528 361.444 204.92C362.156 205.304 362.704 205.848 363.088 206.552C363.472 207.248 363.664 208.064 363.664 209C363.664 209.936 363.472 210.756 363.088 211.46C362.704 212.156 362.156 212.7 361.444 213.092C360.74 213.476 359.896 213.668 358.912 213.668ZM358.912 212.36C359.912 212.36 360.688 212.068 361.24 211.484C361.792 210.892 362.068 210.064 362.068 209C362.068 207.936 361.792 207.112 361.24 206.528C360.688 205.936 359.912 205.64 358.912 205.64C357.912 205.64 357.132 205.936 356.572 206.528C356.02 207.112 355.744 207.936 355.744 209C355.744 210.064 356.02 210.892 356.572 211.484C357.132 212.068 357.912 212.36 358.912 212.36ZM365.362 213.596C365.178 213.596 365.01 213.552 364.858 213.464C364.714 213.376 364.598 213.26 364.51 213.116C364.422 212.964 364.378 212.796 364.378 212.612C364.378 212.428 364.422 212.264 364.51 212.12C364.598 211.968 364.714 211.848 364.858 211.76C365.01 211.672 365.178 211.628 365.362 211.628C365.546 211.628 365.71 211.672 365.854 211.76C366.006 211.848 366.126 211.968 366.214 212.12C366.302 212.264 366.346 212.428 366.346 212.612C366.346 212.796 366.302 212.964 366.214 213.116C366.126 213.26 366.006 213.376 365.854 213.464C365.71 213.552 365.546 213.596 365.362 213.596ZM371.826 213.668C370.842 213.668 369.994 213.476 369.282 213.092C368.57 212.7 368.022 212.156 367.638 211.46C367.254 210.756 367.062 209.936 367.062 209C367.062 208.064 367.254 207.248 367.638 206.552C368.022 205.848 368.57 205.304 369.282 204.92C369.994 204.528 370.842 204.332 371.826 204.332C372.81 204.332 373.654 204.528 374.358 204.92C375.07 205.304 375.618 205.848 376.002 206.552C376.386 207.248 376.578 208.064 376.578 209C376.578 209.936 376.386 210.756 376.002 211.46C375.618 212.156 375.07 212.7 374.358 213.092C373.654 213.476 372.81 213.668 371.826 213.668ZM371.826 212.36C372.826 212.36 373.602 212.068 374.154 211.484C374.706 210.892 374.982 210.064 374.982 209C374.982 207.936 374.706 207.112 374.154 206.528C373.602 205.936 372.826 205.64 371.826 205.64C370.826 205.64 370.046 205.936 369.486 206.528C368.934 207.112 368.658 207.936 368.658 209C368.658 210.064 368.934 210.892 369.486 211.484C370.046 212.068 370.826 212.36 371.826 212.36ZM377.857 207.272C377.913 206.72 378.113 206.224 378.457 205.784C378.809 205.336 379.297 204.984 379.921 204.728C380.553 204.464 381.305 204.332 382.177 204.332C382.953 204.332 383.625 204.436 384.193 204.644C384.769 204.844 385.213 205.128 385.525 205.496C385.837 205.856 385.993 206.284 385.993 206.78C385.993 207.196 385.869 207.572 385.621 207.908C385.381 208.236 385.013 208.496 384.517 208.688C384.021 208.88 383.401 208.976 382.657 208.976V208.748C383.393 208.716 384.025 208.784 384.553 208.952C385.081 209.112 385.485 209.36 385.765 209.696C386.053 210.024 386.197 210.428 386.197 210.908C386.197 211.444 386.033 211.92 385.705 212.336C385.377 212.752 384.901 213.08 384.277 213.32C383.661 213.552 382.905 213.668 382.009 213.668C381.137 213.668 380.377 213.544 379.729 213.296C379.081 213.04 378.573 212.684 378.205 212.228C377.845 211.772 377.645 211.24 377.605 210.632H379.201C379.273 211.192 379.545 211.624 380.017 211.928C380.489 212.224 381.153 212.372 382.009 212.372C382.865 212.372 383.509 212.232 383.941 211.952C384.373 211.672 384.589 211.288 384.589 210.8C384.589 210.512 384.513 210.272 384.361 210.08C384.217 209.88 383.973 209.728 383.629 209.624C383.293 209.52 382.837 209.468 382.261 209.468H380.629V208.292H382.261C383.005 208.292 383.545 208.172 383.881 207.932C384.217 207.684 384.385 207.368 384.385 206.984C384.385 206.56 384.197 206.228 383.821 205.988C383.453 205.748 382.877 205.628 382.093 205.628C381.325 205.628 380.713 205.772 380.257 206.06C379.809 206.34 379.541 206.744 379.453 207.272H377.857ZM391.413 204.5V213.5H389.829V204.98L390.693 205.748L386.925 206.408V205.148L390.225 204.5H391.413ZM400.122 204.5V213.5H398.538V205.16H399.186L394.026 210.896L393.99 210.332H401.766V211.604H392.742V210.464L398.106 204.5H400.122ZM407.307 204.332C408.019 204.332 408.651 204.44 409.203 204.656C409.755 204.872 410.207 205.168 410.559 205.544C410.911 205.912 411.131 206.336 411.219 206.816H409.659C409.531 206.488 409.291 206.212 408.939 205.988C408.587 205.756 408.055 205.64 407.343 205.64C406.623 205.64 406.035 205.776 405.579 206.048C405.123 206.312 404.787 206.692 404.571 207.188C404.363 207.676 404.259 208.264 404.259 208.952C404.259 209.664 404.379 210.276 404.619 210.788C404.859 211.3 405.215 211.692 405.687 211.964C406.159 212.228 406.743 212.36 407.439 212.36C407.967 212.36 408.407 212.288 408.759 212.144C409.119 211.992 409.387 211.784 409.563 211.52C409.747 211.256 409.839 210.96 409.839 210.632C409.839 210.32 409.759 210.044 409.599 209.804C409.439 209.556 409.191 209.36 408.855 209.216C408.527 209.072 408.103 209 407.583 209C406.887 209 406.243 209.168 405.651 209.504C405.059 209.84 404.567 210.276 404.175 210.812L403.503 210.32C403.767 209.832 404.107 209.392 404.523 209C404.947 208.6 405.439 208.284 405.999 208.052C406.567 207.812 407.199 207.692 407.895 207.692C408.607 207.692 409.227 207.812 409.755 208.052C410.291 208.284 410.703 208.616 410.991 209.048C411.287 209.48 411.435 209.992 411.435 210.584C411.435 211.192 411.271 211.728 410.943 212.192C410.615 212.656 410.151 213.02 409.551 213.284C408.959 213.54 408.255 213.668 407.439 213.668C406.407 213.668 405.539 213.472 404.835 213.08C404.131 212.68 403.599 212.128 403.239 211.424C402.887 210.72 402.711 209.912 402.711 209C402.711 208.088 402.887 207.28 403.239 206.576C403.591 205.872 404.107 205.324 404.787 204.932C405.475 204.532 406.315 204.332 407.307 204.332Z" fill="#CCCCCC"/>
<path d="M278.5 278.5H139.5V417.5H278.5V278.5Z" stroke="#CCCCCC"/>
<path d="M219.912 352.668C218.928 352.668 218.08 352.476 217.368 352.092C216.656 351.7 216.108 351.156 215.724 350.46C215.34 349.756 215.148 348.936 215.148 348C215.148 347.064 215.34 346.248 215.724 345.552C216.108 344.848 216.656 344.304 217.368 343.92C218.08 343.528 218.928 343.332 219.912 343.332C220.896 343.332 221.74 343.528 222.444 343.92C223.156 344.304 223.704 344.848 224.088 345.552C224.472 346.248 224.664 347.064 224.664 348C224.664 348.936 224.472 349.756 224.088 350.46C223.704 351.156 223.156 351.7 222.444 352.092C221.74 352.476 220.896 352.668 219.912 352.668ZM219.912 351.36C220.912 351.36 221.688 351.068 222.24 350.484C222.792 349.892 223.068 349.064 223.068 348C223.068 346.936 222.792 346.112 222.24 345.528C221.688 344.936 220.912 344.64 219.912 344.64C218.912 344.64 218.132 344.936 217.572 345.528C217.02 346.112 216.744 346.936 216.744 348C216.744 349.064 217.02 349.892 217.572 350.484C218.132 351.068 218.912 351.36 219.912 351.36ZM226.362 352.596C226.178 352.596 226.01 352.552 225.858 352.464C225.714 352.376 225.598 352.26 225.51 352.116C225.422 351.964 225.378 351.796 225.378 351.612C225.378 351.428 225.422 351.264 225.51 351.12C225.598 350.968 225.714 350.848 225.858 350.76C226.01 350.672 226.178 350.628 226.362 350.628C226.546 350.628 226.71 350.672 226.854 350.76C227.006 350.848 227.126 350.968 227.214 351.12C227.302 351.264 227.346 351.428 227.346 351.612C227.346 351.796 227.302 351.964 227.214 352.116C227.126 352.26 227.006 352.376 226.854 352.464C226.71 352.552 226.546 352.596 226.362 352.596ZM232.826 352.668C231.842 352.668 230.994 352.476 230.282 352.092C229.57 351.7 229.022 351.156 228.638 350.46C228.254 349.756 228.062 348.936 228.062 348C228.062 347.064 228.254 346.248 228.638 345.552C229.022 344.848 229.57 344.304 230.282 343.92C230.994 343.528 231.842 343.332 232.826 343.332C233.81 343.332 234.654 343.528 235.358 343.92C236.07 344.304 236.618 344.848 237.002 345.552C237.386 346.248 237.578 347.064 237.578 348C237.578 348.936 237.386 349.756 237.002 350.46C236.618 351.156 236.07 351.7 235.358 352.092C234.654 352.476 233.81 352.668 232.826 352.668ZM232.826 351.36C233.826 351.36 234.602 351.068 235.154 350.484C235.706 349.892 235.982 349.064 235.982 348C235.982 346.936 235.706 346.112 235.154 345.528C234.602 344.936 233.826 344.64 232.826 344.64C231.826 344.64 231.046 344.936 230.486 345.528C229.934 346.112 229.658 346.936 229.658 348C229.658 349.064 229.934 349.892 230.486 350.484C231.046 351.068 231.826 351.36 232.826 351.36ZM238.857 346.272C238.913 345.72 239.113 345.224 239.457 344.784C239.809 344.336 240.297 343.984 240.921 343.728C241.553 343.464 242.305 343.332 243.177 343.332C243.953 343.332 244.625 343.436 245.193 343.644C245.769 343.844 246.213 344.128 246.525 344.496C246.837 344.856 246.993 345.284 246.993 345.78C246.993 346.196 246.869 346.572 246.621 346.908C246.381 347.236 246.013 347.496 245.517 347.688C245.021 347.88 244.401 347.976 243.657 347.976V347.748C244.393 347.716 245.025 347.784 245.553 347.952C246.081 348.112 246.485 348.36 246.765 348.696C247.053 349.024 247.197 349.428 247.197 349.908C247.197 350.444 247.033 350.92 246.705 351.336C246.377 351.752 245.901 352.08 245.277 352.32C244.661 352.552 243.905 352.668 243.009 352.668C242.137 352.668 241.377 352.544 240.729 352.296C240.081 352.04 239.573 351.684 239.205 351.228C238.845 350.772 238.645 350.24 238.605 349.632H240.201C240.273 350.192 240.545 350.624 241.017 350.928C241.489 351.224 242.153 351.372 243.009 351.372C243.865 351.372 244.509 351.232 244.941 350.952C245.373 350.672 245.589 350.288 245.589 349.8C245.589 349.512 245.513 349.272 245.361 349.08C245.217 348.88 244.973 348.728 244.629 348.624C244.293 348.52 243.837 348.468 243.261 348.468H241.629V347.292H243.261C244.005 347.292 244.545 347.172 244.881 346.932C245.217 346.684 245.385 346.368 245.385 345.984C245.385 345.56 245.197 345.228 244.821 344.988C244.453 344.748 243.877 344.628 243.093 344.628C242.325 344.628 241.713 344.772 241.257 345.06C240.809 345.34 240.541 345.744 240.453 346.272H238.857ZM252.413 343.5V352.5H250.829V343.98L251.693 344.748L247.925 345.408V344.148L251.225 343.5H252.413ZM261.122 343.5V352.5H259.538V344.16H260.186L255.026 349.896L254.99 349.332H262.766V350.604H253.742V349.464L259.106 343.5H261.122ZM268.307 343.332C269.019 343.332 269.651 343.44 270.203 343.656C270.755 343.872 271.207 344.168 271.559 344.544C271.911 344.912 272.131 345.336 272.219 345.816H270.659C270.531 345.488 270.291 345.212 269.939 344.988C269.587 344.756 269.055 344.64 268.343 344.64C267.623 344.64 267.035 344.776 266.579 345.048C266.123 345.312 265.787 345.692 265.571 346.188C265.363 346.676 265.259 347.264 265.259 347.952C265.259 348.664 265.379 349.276 265.619 349.788C265.859 350.3 266.215 350.692 266.687 350.964C267.159 351.228 267.743 351.36 268.439 351.36C268.967 351.36 269.407 351.288 269.759 351.144C270.119 350.992 270.387 350.784 270.563 350.52C270.747 350.256 270.839 349.96 270.839 349.632C270.839 349.32 270.759 349.044 270.599 348.804C270.439 348.556 270.191 348.36 269.855 348.216C269.527 348.072 269.103 348 268.583 348C267.887 348 267.243 348.168 266.651 348.504C266.059 348.84 265.567 349.276 265.175 349.812L264.503 349.32C264.767 348.832 265.107 348.392 265.523 348C265.947 347.6 266.439 347.284 266.999 347.052C267.567 346.812 268.199 346.692 268.895 346.692C269.607 346.692 270.227 346.812 270.755 347.052C271.291 347.284 271.703 347.616 271.991 348.048C272.287 348.48 272.435 348.992 272.435 349.584C272.435 350.192 272.271 350.728 271.943 351.192C271.615 351.656 271.151 352.02 270.551 352.284C269.959 352.54 269.255 352.668 268.439 352.668C267.407 352.668 266.539 352.472 265.835 352.08C265.131 351.68 264.599 351.128 264.239 350.424C263.887 349.72 263.711 348.912 263.711 348C263.711 347.088 263.887 346.28 264.239 345.576C264.591 344.872 265.107 344.324 265.787 343.932C266.475 343.532 267.315 343.332 268.307 343.332Z" fill="#CCCCCC"/>
<path d="M278.5 0.5H139.5V139.5H278.5V0.5Z" stroke="#CCCCCC"/>
<path d="M417.5 0.5H278.5V139.5H417.5V0.5Z" stroke="#CCCCCC"/>
<path d="M278.5 139.5H139.5V278.5H278.5V139.5Z" stroke="#CCCCCC"/>
<path d="M417.5 278.5H278.5V417.5H417.5V278.5Z" stroke="#CCCCCC"/>
<path d="M139.5 278.5H0.5V417.5H139.5V278.5Z" stroke="#CCCCCC"/>
<path d="M139.5 139.5H0.5V278.5H139.5V139.5Z" stroke="#CCCCCC"/>
</g>
<defs>
<clipPath id="clip0_530_1594">
<rect width="418" height="418" fill="white"/>
</clipPath>
</defs>
</svg>
