<svg width="418" height="418" viewBox="0 0 418 418" fill="none" xmlns="http://www.w3.org/2000/svg">
<rect x="0.5" y="0.5" width="139" height="139" stroke="black"/>
<path d="M11.364 15.168C10.38 15.168 9.532 14.976 8.82 14.592C8.108 14.2 7.56 13.656 7.176 12.96C6.792 12.256 6.6 11.436 6.6 10.5C6.6 9.564 6.792 8.748 7.176 8.052C7.56 7.348 8.108 6.804 8.82 6.42C9.532 6.028 10.38 5.832 11.364 5.832C12.348 5.832 13.192 6.028 13.896 6.42C14.608 6.804 15.156 7.348 15.54 8.052C15.924 8.748 16.116 9.564 16.116 10.5C16.116 11.436 15.924 12.256 15.54 12.96C15.156 13.656 14.608 14.2 13.896 14.592C13.192 14.976 12.348 15.168 11.364 15.168ZM11.364 13.86C12.364 13.86 13.14 13.568 13.692 12.984C14.244 12.392 14.52 11.564 14.52 10.5C14.52 9.436 14.244 8.612 13.692 8.028C13.14 7.436 12.364 7.14 11.364 7.14C10.364 7.14 9.584 7.436 9.024 8.028C8.472 8.612 8.196 9.436 8.196 10.5C8.196 11.564 8.472 12.392 9.024 12.984C9.584 13.568 10.364 13.86 11.364 13.86ZM17.8136 15.096C17.6296 15.096 17.4616 15.052 17.3096 14.964C17.1656 14.876 17.0496 14.76 16.9616 14.616C16.8736 14.464 16.8296 14.296 16.8296 14.112C16.8296 13.928 16.8736 13.764 16.9616 13.62C17.0496 13.468 17.1656 13.348 17.3096 13.26C17.4616 13.172 17.6296 13.128 17.8136 13.128C17.9976 13.128 18.1616 13.172 18.3056 13.26C18.4576 13.348 18.5776 13.468 18.6656 13.62C18.7536 13.764 18.7976 13.928 18.7976 14.112C18.7976 14.296 18.7536 14.464 18.6656 14.616C18.5776 14.76 18.4576 14.876 18.3056 14.964C18.1616 15.052 17.9976 15.096 17.8136 15.096ZM24.2781 15.168C23.2941 15.168 22.4461 14.976 21.7341 14.592C21.0221 14.2 20.4741 13.656 20.0901 12.96C19.7061 12.256 19.5141 11.436 19.5141 10.5C19.5141 9.564 19.7061 8.748 20.0901 8.052C20.4741 7.348 21.0221 6.804 21.7341 6.42C22.4461 6.028 23.2941 5.832 24.2781 5.832C25.2621 5.832 26.1061 6.028 26.8101 6.42C27.5221 6.804 28.0701 7.348 28.4541 8.052C28.8381 8.748 29.0301 9.564 29.0301 10.5C29.0301 11.436 28.8381 12.256 28.4541 12.96C28.0701 13.656 27.5221 14.2 26.8101 14.592C26.1061 14.976 25.2621 15.168 24.2781 15.168ZM24.2781 13.86C25.2781 13.86 26.0541 13.568 26.6061 12.984C27.1581 12.392 27.4341 11.564 27.4341 10.5C27.4341 9.436 27.1581 8.612 26.6061 8.028C26.0541 7.436 25.2781 7.14 24.2781 7.14C23.2781 7.14 22.4981 7.436 21.9381 8.028C21.3861 8.612 21.1101 9.436 21.1101 10.5C21.1101 11.564 21.3861 12.392 21.9381 12.984C22.4981 13.568 23.2781 13.86 24.2781 13.86ZM30.309 8.772C30.365 8.22 30.565 7.724 30.909 7.284C31.261 6.836 31.749 6.484 32.373 6.228C33.005 5.964 33.757 5.832 34.629 5.832C35.405 5.832 36.077 5.936 36.645 6.144C37.221 6.344 37.665 6.628 37.977 6.996C38.289 7.356 38.445 7.784 38.445 8.28C38.445 8.696 38.321 9.072 38.073 9.408C37.833 9.736 37.465 9.996 36.969 10.188C36.473 10.38 35.853 10.476 35.109 10.476V10.248C35.845 10.216 36.477 10.284 37.005 10.452C37.533 10.612 37.937 10.86 38.217 11.196C38.505 11.524 38.649 11.928 38.649 12.408C38.649 12.944 38.485 13.42 38.157 13.836C37.829 14.252 37.353 14.58 36.729 14.82C36.113 15.052 35.357 15.168 34.461 15.168C33.589 15.168 32.829 15.044 32.181 14.796C31.533 14.54 31.025 14.184 30.657 13.728C30.297 13.272 30.097 12.74 30.057 12.132H31.653C31.725 12.692 31.997 13.124 32.469 13.428C32.941 13.724 33.605 13.872 34.461 13.872C35.317 13.872 35.961 13.732 36.393 13.452C36.825 13.172 37.041 12.788 37.041 12.3C37.041 12.012 36.965 11.772 36.813 11.58C36.669 11.38 36.425 11.228 36.081 11.124C35.745 11.02 35.289 10.968 34.713 10.968H33.081V9.792H34.713C35.457 9.792 35.997 9.672 36.333 9.432C36.669 9.184 36.837 8.868 36.837 8.484C36.837 8.06 36.649 7.728 36.273 7.488C35.905 7.248 35.329 7.128 34.545 7.128C33.777 7.128 33.165 7.272 32.709 7.56C32.261 7.84 31.993 8.244 31.905 8.772H30.309ZM43.8655 6V15H42.2815V6.48L43.1455 7.248L39.3775 7.908V6.648L42.6775 6H43.8655ZM52.574 6V15H50.99V6.66H51.638L46.478 12.396L46.442 11.832H54.218V13.104H45.194V11.964L50.558 6H52.574ZM59.7588 5.832C60.4708 5.832 61.1028 5.94 61.6548 6.156C62.2068 6.372 62.6588 6.668 63.0108 7.044C63.3628 7.412 63.5828 7.836 63.6708 8.316H62.1108C61.9828 7.988 61.7428 7.712 61.3908 7.488C61.0388 7.256 60.5068 7.14 59.7948 7.14C59.0748 7.14 58.4868 7.276 58.0308 7.548C57.5748 7.812 57.2388 8.192 57.0228 8.688C56.8148 9.176 56.7108 9.764 56.7108 10.452C56.7108 11.164 56.8308 11.776 57.0708 12.288C57.3108 12.8 57.6668 13.192 58.1388 13.464C58.6108 13.728 59.1948 13.86 59.8908 13.86C60.4188 13.86 60.8588 13.788 61.2108 13.644C61.5708 13.492 61.8388 13.284 62.0148 13.02C62.1988 12.756 62.2908 12.46 62.2908 12.132C62.2908 11.82 62.2108 11.544 62.0508 11.304C61.8908 11.056 61.6428 10.86 61.3068 10.716C60.9788 10.572 60.5548 10.5 60.0348 10.5C59.3388 10.5 58.6948 10.668 58.1028 11.004C57.5108 11.34 57.0188 11.776 56.6268 12.312L55.9548 11.82C56.2188 11.332 56.5588 10.892 56.9748 10.5C57.3988 10.1 57.8908 9.784 58.4508 9.552C59.0188 9.312 59.6508 9.192 60.3468 9.192C61.0588 9.192 61.6788 9.312 62.2068 9.552C62.7428 9.784 63.1548 10.116 63.4428 10.548C63.7388 10.98 63.8868 11.492 63.8868 12.084C63.8868 12.692 63.7228 13.228 63.3948 13.692C63.0668 14.156 62.6028 14.52 62.0028 14.784C61.4108 15.04 60.7068 15.168 59.8908 15.168C58.8588 15.168 57.9908 14.972 57.2868 14.58C56.5828 14.18 56.0508 13.628 55.6908 12.924C55.3388 12.22 55.1628 11.412 55.1628 10.5C55.1628 9.588 55.3388 8.78 55.6908 8.076C56.0428 7.372 56.5588 6.824 57.2388 6.432C57.9268 6.032 58.7668 5.832 59.7588 5.832Z" fill="black"/>
<path d="M80.9109 134.168C79.9269 134.168 79.0789 133.976 78.3669 133.592C77.6549 133.2 77.1069 132.656 76.7229 131.96C76.3389 131.256 76.1469 130.436 76.1469 129.5C76.1469 128.564 76.3389 127.748 76.7229 127.052C77.1069 126.348 77.6549 125.804 78.3669 125.42C79.0789 125.028 79.9269 124.832 80.9109 124.832C81.8949 124.832 82.7389 125.028 83.4429 125.42C84.1549 125.804 84.7029 126.348 85.0869 127.052C85.4709 127.748 85.6629 128.564 85.6629 129.5C85.6629 130.436 85.4709 131.256 85.0869 131.96C84.7029 132.656 84.1549 133.2 83.4429 133.592C82.7389 133.976 81.8949 134.168 80.9109 134.168ZM80.9109 132.86C81.9109 132.86 82.6869 132.568 83.2389 131.984C83.7909 131.392 84.0669 130.564 84.0669 129.5C84.0669 128.436 83.7909 127.612 83.2389 127.028C82.6869 126.436 81.9109 126.14 80.9109 126.14C79.9109 126.14 79.1309 126.436 78.5709 127.028C78.0189 127.612 77.7429 128.436 77.7429 129.5C77.7429 130.564 78.0189 131.392 78.5709 131.984C79.1309 132.568 79.9109 132.86 80.9109 132.86ZM87.3605 134.096C87.1765 134.096 87.0085 134.052 86.8565 133.964C86.7125 133.876 86.5965 133.76 86.5085 133.616C86.4205 133.464 86.3765 133.296 86.3765 133.112C86.3765 132.928 86.4205 132.764 86.5085 132.62C86.5965 132.468 86.7125 132.348 86.8565 132.26C87.0085 132.172 87.1765 132.128 87.3605 132.128C87.5445 132.128 87.7085 132.172 87.8525 132.26C88.0045 132.348 88.1245 132.468 88.2125 132.62C88.3005 132.764 88.3445 132.928 88.3445 133.112C88.3445 133.296 88.3005 133.464 88.2125 133.616C88.1245 133.76 88.0045 133.876 87.8525 133.964C87.7085 134.052 87.5445 134.096 87.3605 134.096ZM93.8249 134.168C92.8409 134.168 91.9929 133.976 91.2809 133.592C90.5689 133.2 90.0209 132.656 89.6369 131.96C89.2529 131.256 89.0609 130.436 89.0609 129.5C89.0609 128.564 89.2529 127.748 89.6369 127.052C90.0209 126.348 90.5689 125.804 91.2809 125.42C91.9929 125.028 92.8409 124.832 93.8249 124.832C94.8089 124.832 95.6529 125.028 96.3569 125.42C97.0689 125.804 97.6169 126.348 98.0009 127.052C98.3849 127.748 98.5769 128.564 98.5769 129.5C98.5769 130.436 98.3849 131.256 98.0009 131.96C97.6169 132.656 97.0689 133.2 96.3569 133.592C95.6529 133.976 94.8089 134.168 93.8249 134.168ZM93.8249 132.86C94.8249 132.86 95.6009 132.568 96.1529 131.984C96.7049 131.392 96.9809 130.564 96.9809 129.5C96.9809 128.436 96.7049 127.612 96.1529 127.028C95.6009 126.436 94.8249 126.14 93.8249 126.14C92.8249 126.14 92.0449 126.436 91.4849 127.028C90.9329 127.612 90.6569 128.436 90.6569 129.5C90.6569 130.564 90.9329 131.392 91.4849 131.984C92.0449 132.568 92.8249 132.86 93.8249 132.86ZM99.8559 127.772C99.9119 127.22 100.112 126.724 100.456 126.284C100.808 125.836 101.296 125.484 101.92 125.228C102.552 124.964 103.304 124.832 104.176 124.832C104.952 124.832 105.624 124.936 106.192 125.144C106.768 125.344 107.212 125.628 107.524 125.996C107.836 126.356 107.992 126.784 107.992 127.28C107.992 127.696 107.868 128.072 107.62 128.408C107.38 128.736 107.012 128.996 106.516 129.188C106.02 129.38 105.4 129.476 104.656 129.476V129.248C105.392 129.216 106.024 129.284 106.552 129.452C107.08 129.612 107.484 129.86 107.764 130.196C108.052 130.524 108.196 130.928 108.196 131.408C108.196 131.944 108.032 132.42 107.704 132.836C107.376 133.252 106.9 133.58 106.276 133.82C105.66 134.052 104.904 134.168 104.008 134.168C103.136 134.168 102.376 134.044 101.728 133.796C101.08 133.54 100.572 133.184 100.204 132.728C99.8439 132.272 99.6439 131.74 99.6039 131.132H101.2C101.272 131.692 101.544 132.124 102.016 132.428C102.488 132.724 103.152 132.872 104.008 132.872C104.864 132.872 105.508 132.732 105.94 132.452C106.372 132.172 106.588 131.788 106.588 131.3C106.588 131.012 106.512 130.772 106.36 130.58C106.216 130.38 105.972 130.228 105.628 130.124C105.292 130.02 104.836 129.968 104.26 129.968H102.628V128.792H104.26C105.004 128.792 105.544 128.672 105.88 128.432C106.216 128.184 106.384 127.868 106.384 127.484C106.384 127.06 106.196 126.728 105.82 126.488C105.452 126.248 104.876 126.128 104.092 126.128C103.324 126.128 102.712 126.272 102.256 126.56C101.808 126.84 101.54 127.244 101.452 127.772H99.8559ZM113.412 125V134H111.828V125.48L112.692 126.248L108.924 126.908V125.648L112.224 125H113.412ZM122.121 125V134H120.537V125.66H121.185L116.025 131.396L115.989 130.832H123.765V132.104H114.741V130.964L120.105 125H122.121ZM129.306 124.832C130.018 124.832 130.65 124.94 131.202 125.156C131.754 125.372 132.206 125.668 132.558 126.044C132.91 126.412 133.13 126.836 133.218 127.316H131.658C131.53 126.988 131.29 126.712 130.938 126.488C130.586 126.256 130.054 126.14 129.342 126.14C128.622 126.14 128.034 126.276 127.578 126.548C127.122 126.812 126.786 127.192 126.57 127.688C126.362 128.176 126.258 128.764 126.258 129.452C126.258 130.164 126.378 130.776 126.618 131.288C126.858 131.8 127.214 132.192 127.686 132.464C128.158 132.728 128.742 132.86 129.438 132.86C129.966 132.86 130.406 132.788 130.758 132.644C131.118 132.492 131.386 132.284 131.562 132.02C131.746 131.756 131.838 131.46 131.838 131.132C131.838 130.82 131.758 130.544 131.598 130.304C131.438 130.056 131.19 129.86 130.854 129.716C130.526 129.572 130.102 129.5 129.582 129.5C128.886 129.5 128.242 129.668 127.65 130.004C127.058 130.34 126.566 130.776 126.174 131.312L125.502 130.82C125.766 130.332 126.106 129.892 126.522 129.5C126.946 129.1 127.438 128.784 127.998 128.552C128.566 128.312 129.198 128.192 129.894 128.192C130.606 128.192 131.226 128.312 131.754 128.552C132.29 128.784 132.702 129.116 132.99 129.548C133.286 129.98 133.434 130.492 133.434 131.084C133.434 131.692 133.27 132.228 132.942 132.692C132.614 133.156 132.15 133.52 131.55 133.784C130.958 134.04 130.254 134.168 129.438 134.168C128.406 134.168 127.538 133.972 126.834 133.58C126.13 133.18 125.598 132.628 125.238 131.924C124.886 131.22 124.71 130.412 124.71 129.5C124.71 128.588 124.886 127.78 125.238 127.076C125.59 126.372 126.106 125.824 126.786 125.432C127.474 125.032 128.314 124.832 129.306 124.832Z" fill="black"/>
<rect x="278.5" y="139.5" width="139" height="139" stroke="black"/>
<path d="M358.911 213.668C357.927 213.668 357.079 213.476 356.367 213.092C355.655 212.7 355.107 212.156 354.723 211.46C354.339 210.756 354.147 209.936 354.147 209C354.147 208.064 354.339 207.248 354.723 206.552C355.107 205.848 355.655 205.304 356.367 204.92C357.079 204.528 357.927 204.332 358.911 204.332C359.895 204.332 360.739 204.528 361.443 204.92C362.155 205.304 362.703 205.848 363.087 206.552C363.471 207.248 363.663 208.064 363.663 209C363.663 209.936 363.471 210.756 363.087 211.46C362.703 212.156 362.155 212.7 361.443 213.092C360.739 213.476 359.895 213.668 358.911 213.668ZM358.911 212.36C359.911 212.36 360.687 212.068 361.239 211.484C361.791 210.892 362.067 210.064 362.067 209C362.067 207.936 361.791 207.112 361.239 206.528C360.687 205.936 359.911 205.64 358.911 205.64C357.911 205.64 357.131 205.936 356.571 206.528C356.019 207.112 355.743 207.936 355.743 209C355.743 210.064 356.019 210.892 356.571 211.484C357.131 212.068 357.911 212.36 358.911 212.36ZM365.361 213.596C365.177 213.596 365.009 213.552 364.857 213.464C364.713 213.376 364.597 213.26 364.509 213.116C364.421 212.964 364.377 212.796 364.377 212.612C364.377 212.428 364.421 212.264 364.509 212.12C364.597 211.968 364.713 211.848 364.857 211.76C365.009 211.672 365.177 211.628 365.361 211.628C365.545 211.628 365.709 211.672 365.853 211.76C366.005 211.848 366.125 211.968 366.213 212.12C366.301 212.264 366.345 212.428 366.345 212.612C366.345 212.796 366.301 212.964 366.213 213.116C366.125 213.26 366.005 213.376 365.853 213.464C365.709 213.552 365.545 213.596 365.361 213.596ZM371.825 213.668C370.841 213.668 369.993 213.476 369.281 213.092C368.569 212.7 368.021 212.156 367.637 211.46C367.253 210.756 367.061 209.936 367.061 209C367.061 208.064 367.253 207.248 367.637 206.552C368.021 205.848 368.569 205.304 369.281 204.92C369.993 204.528 370.841 204.332 371.825 204.332C372.809 204.332 373.653 204.528 374.357 204.92C375.069 205.304 375.617 205.848 376.001 206.552C376.385 207.248 376.577 208.064 376.577 209C376.577 209.936 376.385 210.756 376.001 211.46C375.617 212.156 375.069 212.7 374.357 213.092C373.653 213.476 372.809 213.668 371.825 213.668ZM371.825 212.36C372.825 212.36 373.601 212.068 374.153 211.484C374.705 210.892 374.981 210.064 374.981 209C374.981 207.936 374.705 207.112 374.153 206.528C373.601 205.936 372.825 205.64 371.825 205.64C370.825 205.64 370.045 205.936 369.485 206.528C368.933 207.112 368.657 207.936 368.657 209C368.657 210.064 368.933 210.892 369.485 211.484C370.045 212.068 370.825 212.36 371.825 212.36ZM377.856 207.272C377.912 206.72 378.112 206.224 378.456 205.784C378.808 205.336 379.296 204.984 379.92 204.728C380.552 204.464 381.304 204.332 382.176 204.332C382.952 204.332 383.624 204.436 384.192 204.644C384.768 204.844 385.212 205.128 385.524 205.496C385.836 205.856 385.992 206.284 385.992 206.78C385.992 207.196 385.868 207.572 385.62 207.908C385.38 208.236 385.012 208.496 384.516 208.688C384.02 208.88 383.4 208.976 382.656 208.976V208.748C383.392 208.716 384.024 208.784 384.552 208.952C385.08 209.112 385.484 209.36 385.764 209.696C386.052 210.024 386.196 210.428 386.196 210.908C386.196 211.444 386.032 211.92 385.704 212.336C385.376 212.752 384.9 213.08 384.276 213.32C383.66 213.552 382.904 213.668 382.008 213.668C381.136 213.668 380.376 213.544 379.728 213.296C379.08 213.04 378.572 212.684 378.204 212.228C377.844 211.772 377.644 211.24 377.604 210.632H379.2C379.272 211.192 379.544 211.624 380.016 211.928C380.488 212.224 381.152 212.372 382.008 212.372C382.864 212.372 383.508 212.232 383.94 211.952C384.372 211.672 384.588 211.288 384.588 210.8C384.588 210.512 384.512 210.272 384.36 210.08C384.216 209.88 383.972 209.728 383.628 209.624C383.292 209.52 382.836 209.468 382.26 209.468H380.628V208.292H382.26C383.004 208.292 383.544 208.172 383.88 207.932C384.216 207.684 384.384 207.368 384.384 206.984C384.384 206.56 384.196 206.228 383.82 205.988C383.452 205.748 382.876 205.628 382.092 205.628C381.324 205.628 380.712 205.772 380.256 206.06C379.808 206.34 379.54 206.744 379.452 207.272H377.856ZM391.412 204.5V213.5H389.828V204.98L390.692 205.748L386.924 206.408V205.148L390.224 204.5H391.412ZM400.121 204.5V213.5H398.537V205.16H399.185L394.025 210.896L393.989 210.332H401.765V211.604H392.741V210.464L398.105 204.5H400.121ZM407.306 204.332C408.018 204.332 408.65 204.44 409.202 204.656C409.754 204.872 410.206 205.168 410.558 205.544C410.91 205.912 411.13 206.336 411.218 206.816H409.658C409.53 206.488 409.29 206.212 408.938 205.988C408.586 205.756 408.054 205.64 407.342 205.64C406.622 205.64 406.034 205.776 405.578 206.048C405.122 206.312 404.786 206.692 404.57 207.188C404.362 207.676 404.258 208.264 404.258 208.952C404.258 209.664 404.378 210.276 404.618 210.788C404.858 211.3 405.214 211.692 405.686 211.964C406.158 212.228 406.742 212.36 407.438 212.36C407.966 212.36 408.406 212.288 408.758 212.144C409.118 211.992 409.386 211.784 409.562 211.52C409.746 211.256 409.838 210.96 409.838 210.632C409.838 210.32 409.758 210.044 409.598 209.804C409.438 209.556 409.19 209.36 408.854 209.216C408.526 209.072 408.102 209 407.582 209C406.886 209 406.242 209.168 405.65 209.504C405.058 209.84 404.566 210.276 404.174 210.812L403.502 210.32C403.766 209.832 404.106 209.392 404.522 209C404.946 208.6 405.438 208.284 405.998 208.052C406.566 207.812 407.198 207.692 407.894 207.692C408.606 207.692 409.226 207.812 409.754 208.052C410.29 208.284 410.702 208.616 410.99 209.048C411.286 209.48 411.434 209.992 411.434 210.584C411.434 211.192 411.27 211.728 410.942 212.192C410.614 212.656 410.15 213.02 409.55 213.284C408.958 213.54 408.254 213.668 407.438 213.668C406.406 213.668 405.538 213.472 404.834 213.08C404.13 212.68 403.598 212.128 403.238 211.424C402.886 210.72 402.71 209.912 402.71 209C402.71 208.088 402.886 207.28 403.238 206.576C403.59 205.872 404.106 205.324 404.786 204.932C405.474 204.532 406.314 204.332 407.306 204.332Z" fill="black"/>
<rect x="139.5" y="278.5" width="139" height="139" stroke="black"/>
<path d="M219.911 352.668C218.927 352.668 218.079 352.476 217.367 352.092C216.655 351.7 216.107 351.156 215.723 350.46C215.339 349.756 215.147 348.936 215.147 348C215.147 347.064 215.339 346.248 215.723 345.552C216.107 344.848 216.655 344.304 217.367 343.92C218.079 343.528 218.927 343.332 219.911 343.332C220.895 343.332 221.739 343.528 222.443 343.92C223.155 344.304 223.703 344.848 224.087 345.552C224.471 346.248 224.663 347.064 224.663 348C224.663 348.936 224.471 349.756 224.087 350.46C223.703 351.156 223.155 351.7 222.443 352.092C221.739 352.476 220.895 352.668 219.911 352.668ZM219.911 351.36C220.911 351.36 221.687 351.068 222.239 350.484C222.791 349.892 223.067 349.064 223.067 348C223.067 346.936 222.791 346.112 222.239 345.528C221.687 344.936 220.911 344.64 219.911 344.64C218.911 344.64 218.131 344.936 217.571 345.528C217.019 346.112 216.743 346.936 216.743 348C216.743 349.064 217.019 349.892 217.571 350.484C218.131 351.068 218.911 351.36 219.911 351.36ZM226.361 352.596C226.177 352.596 226.009 352.552 225.857 352.464C225.713 352.376 225.597 352.26 225.509 352.116C225.421 351.964 225.377 351.796 225.377 351.612C225.377 351.428 225.421 351.264 225.509 351.12C225.597 350.968 225.713 350.848 225.857 350.76C226.009 350.672 226.177 350.628 226.361 350.628C226.545 350.628 226.709 350.672 226.853 350.76C227.005 350.848 227.125 350.968 227.213 351.12C227.301 351.264 227.345 351.428 227.345 351.612C227.345 351.796 227.301 351.964 227.213 352.116C227.125 352.26 227.005 352.376 226.853 352.464C226.709 352.552 226.545 352.596 226.361 352.596ZM232.825 352.668C231.841 352.668 230.993 352.476 230.281 352.092C229.569 351.7 229.021 351.156 228.637 350.46C228.253 349.756 228.061 348.936 228.061 348C228.061 347.064 228.253 346.248 228.637 345.552C229.021 344.848 229.569 344.304 230.281 343.92C230.993 343.528 231.841 343.332 232.825 343.332C233.809 343.332 234.653 343.528 235.357 343.92C236.069 344.304 236.617 344.848 237.001 345.552C237.385 346.248 237.577 347.064 237.577 348C237.577 348.936 237.385 349.756 237.001 350.46C236.617 351.156 236.069 351.7 235.357 352.092C234.653 352.476 233.809 352.668 232.825 352.668ZM232.825 351.36C233.825 351.36 234.601 351.068 235.153 350.484C235.705 349.892 235.981 349.064 235.981 348C235.981 346.936 235.705 346.112 235.153 345.528C234.601 344.936 233.825 344.64 232.825 344.64C231.825 344.64 231.045 344.936 230.485 345.528C229.933 346.112 229.657 346.936 229.657 348C229.657 349.064 229.933 349.892 230.485 350.484C231.045 351.068 231.825 351.36 232.825 351.36ZM238.856 346.272C238.912 345.72 239.112 345.224 239.456 344.784C239.808 344.336 240.296 343.984 240.92 343.728C241.552 343.464 242.304 343.332 243.176 343.332C243.952 343.332 244.624 343.436 245.192 343.644C245.768 343.844 246.212 344.128 246.524 344.496C246.836 344.856 246.992 345.284 246.992 345.78C246.992 346.196 246.868 346.572 246.62 346.908C246.38 347.236 246.012 347.496 245.516 347.688C245.02 347.88 244.4 347.976 243.656 347.976V347.748C244.392 347.716 245.024 347.784 245.552 347.952C246.08 348.112 246.484 348.36 246.764 348.696C247.052 349.024 247.196 349.428 247.196 349.908C247.196 350.444 247.032 350.92 246.704 351.336C246.376 351.752 245.9 352.08 245.276 352.32C244.66 352.552 243.904 352.668 243.008 352.668C242.136 352.668 241.376 352.544 240.728 352.296C240.08 352.04 239.572 351.684 239.204 351.228C238.844 350.772 238.644 350.24 238.604 349.632H240.2C240.272 350.192 240.544 350.624 241.016 350.928C241.488 351.224 242.152 351.372 243.008 351.372C243.864 351.372 244.508 351.232 244.94 350.952C245.372 350.672 245.588 350.288 245.588 349.8C245.588 349.512 245.512 349.272 245.36 349.08C245.216 348.88 244.972 348.728 244.628 348.624C244.292 348.52 243.836 348.468 243.26 348.468H241.628V347.292H243.26C244.004 347.292 244.544 347.172 244.88 346.932C245.216 346.684 245.384 346.368 245.384 345.984C245.384 345.56 245.196 345.228 244.82 344.988C244.452 344.748 243.876 344.628 243.092 344.628C242.324 344.628 241.712 344.772 241.256 345.06C240.808 345.34 240.54 345.744 240.452 346.272H238.856ZM252.412 343.5V352.5H250.828V343.98L251.692 344.748L247.924 345.408V344.148L251.224 343.5H252.412ZM261.121 343.5V352.5H259.537V344.16H260.185L255.025 349.896L254.989 349.332H262.765V350.604H253.741V349.464L259.105 343.5H261.121ZM268.306 343.332C269.018 343.332 269.65 343.44 270.202 343.656C270.754 343.872 271.206 344.168 271.558 344.544C271.91 344.912 272.13 345.336 272.218 345.816H270.658C270.53 345.488 270.29 345.212 269.938 344.988C269.586 344.756 269.054 344.64 268.342 344.64C267.622 344.64 267.034 344.776 266.578 345.048C266.122 345.312 265.786 345.692 265.57 346.188C265.362 346.676 265.258 347.264 265.258 347.952C265.258 348.664 265.378 349.276 265.618 349.788C265.858 350.3 266.214 350.692 266.686 350.964C267.158 351.228 267.742 351.36 268.438 351.36C268.966 351.36 269.406 351.288 269.758 351.144C270.118 350.992 270.386 350.784 270.562 350.52C270.746 350.256 270.838 349.96 270.838 349.632C270.838 349.32 270.758 349.044 270.598 348.804C270.438 348.556 270.19 348.36 269.854 348.216C269.526 348.072 269.102 348 268.582 348C267.886 348 267.242 348.168 266.65 348.504C266.058 348.84 265.566 349.276 265.174 349.812L264.502 349.32C264.766 348.832 265.106 348.392 265.522 348C265.946 347.6 266.438 347.284 266.998 347.052C267.566 346.812 268.198 346.692 268.894 346.692C269.606 346.692 270.226 346.812 270.754 347.052C271.29 347.284 271.702 347.616 271.99 348.048C272.286 348.48 272.434 348.992 272.434 349.584C272.434 350.192 272.27 350.728 271.942 351.192C271.614 351.656 271.15 352.02 270.55 352.284C269.958 352.54 269.254 352.668 268.438 352.668C267.406 352.668 266.538 352.472 265.834 352.08C265.13 351.68 264.598 351.128 264.238 350.424C263.886 349.72 263.71 348.912 263.71 348C263.71 347.088 263.886 346.28 264.238 345.576C264.59 344.872 265.106 344.324 265.786 343.932C266.474 343.532 267.314 343.332 268.306 343.332Z" fill="black"/>
<rect x="139.5" y="0.5" width="139" height="139" stroke="black"/>
<rect x="278.5" y="0.5" width="139" height="139" stroke="black"/>
<rect x="139.5" y="139.5" width="139" height="139" stroke="black"/>
<rect x="278.5" y="278.5" width="139" height="139" stroke="black"/>
<rect x="0.5" y="278.5" width="139" height="139" stroke="black"/>
<rect x="0.5" y="139.5" width="139" height="139" stroke="black"/>
</svg>
